# xmcd
#
# Track frame offsets: 
#        150
#        16434
#        33155
#        49528
#        64754
#        81916
#        98760
#        116655
#        133817
#        149368
#        164349
#        182801
#        196591
#        212590
#        225568
#        242541
#
# Disc length: 3463 seconds
#
# Revision: 0
# Processed by: cddbd v1.5.2PL0 Copyright (c) Steve Scherf et al.
# Submitted via: ExactAudioCopy v0.95b4
#
DISCID=d20d8510
DTITLE=ยิ่งยง ยอดบัวงาม - พระอาจารย์อ๊อด
DYEAR=2007
DGENRE=Country
TTITLE0=พระอาจารย์อ๊อด
TTITLE1=ไม่ได้เจตนามีเมียน้อย
TTITLE2=สมศรี 1992
TTITLE3=กินยาผิดซอง
TTITLE4=แท็กซี่กับนางโลม
TTITLE5=อกหักเพราะรักเมีย
TTITLE6=ช่างทองร้องไห้
TTITLE7=ผมถูกปรักปรำ
TTITLE8=สาวเวียง
TTITLE9=เก็บตังโต๊ะนี้
TTITLE10=มักสาวท่าลี่
TTITLE11=ลมหนาว
TTITLE12=หนุ่มสุรินทร์รักสาวสุราษฎร์
TTITLE13=ทำให้รักทำไม
TTITLE14=ได้ดีเพราะเมีย
TTITLE15=อายัยยิ่งยง
EXTD=
EXTT0=
EXTT1=
EXTT2=
EXTT3=
EXTT4=
EXTT5=
EXTT6=
EXTT7=
EXTT8=
EXTT9=
EXTT10=
EXTT11=
EXTT12=
EXTT13=
EXTT14=
EXTT15=
PLAYORDER=
